{"title":"Point_Break.(2015).h263.1080p[)(]DD+ 5.1-(FR).mkv","uid":13875231,"size":14035484760,"categoryP":"video","categoryS":"other","magnet":"?xt=urn:btih:939eceac936db45a3c6c88559f23cf734c98a62c&amp;dn=Point_Break.%282015%29.h263.1080p%5B%29%28%5DDD%2B+5.1-%28FR%29.mkv&amp;tr=udp%3A%2F%2Ftracker.leechers-paradise.org%3A6969&amp;tr=udp%3A%2F%2Fzer0day.ch%3A1337&amp;tr=udp%3A%2F%2Fopen.demonii.com%3A1337&amp;tr=udp%3A%2F%2Ftracker.coppersurfer.tk%3A6969&amp;tr=udp%3A%2F%2Fexodus.desync.com%3A6969","seeders":0,"leechers":1,"uploader":"Tyr3ll","files":1,"time":1458122554,"description":"Point_Break.(2015).h263.1080p[)(]DD+ 5.1-(FR).mkv\r\n\r\nimdb : \nhttp://www.imdb.com/title/tt2058673/\r\n\r\nPG-13 |  1h 54min  | Action, Crime, Sport\r\n\r\nDirector: Ericson Core  \r\n\r\nWriters: Kurt Wimmer (screenplay),  Rick King (story)   \r\n\r\nStars: Edgar Ramirez, Luke Bracey, Ray Winstone and more.\r\n\r\nBDrip @ Copy by Master Dubbing\r\n\r\nLanguage : French only.\r\n\r\nSub : French and US English.\r\n\r\nQuality : a bit grainy but acceptable quality anyway.\r\n\r\n\r\n-----------------------------------------------------------------------\r\n\r\nGeneral\r\nUnique ID                      : N/A\r\nComplete name                  : Point_Break.(2015).h263.1080p[)(]DD+ 5.1-(FR).mkv\r\n\r\nFormat                         : Matroska\r\nFormat version                 : Version 4 / Version 2\r\nFile size                      : 13.1 GiB\r\nDuration                       : 1h 53mn\r\nOverall bit rate               : 16.4 Mbps\r\nEncoded date                   : UTC 2016-03-15 14:16:47\r\nWriting application            : Lavf57.26.100\r\nWriting library                : Lavf57.26.100 / Lavf57.26.100\r\n\r\nVideo\r\nID                             : 1\r\nFormat                         : H.263\r\nCodec ID                       : V_MS/VFW/FOURCC / H263\r\nDuration                       : 1h 53mn\r\nBit rate                       : 15.3 Mbps\r\nWidth                          : 1 920 pixels\r\nHeight                         : 1 080 pixels\r\nDisplay aspect ratio           : 16:9\r\nFrame rate mode                : Constant\r\nFrame rate                     : 23.976 (24000/1001) fps\r\nBit depth                      : 8 bits\r\nCompression mode               : Lossy\r\nBits/(Pixel*Frame)             : 0.309\r\nStream size                    : 12.2 GiB (93%)\r\nWriting library                : Lavc57.25.101 h263p\r\nLanguage                       : French\r\nDefault                        : Yes\r\nForced                         : No\r\nDURATION                       : 01:53:50.913000000\r\n\r\nAudio\r\nID                             : 2\r\nFormat                         : E-AC-3 (Dolby Digital Plus)\r\nFormat/Info                    : Audio Coding 3\r\nFormat settings, Endianness    : Big\r\nCodec ID                       : A_EAC3\r\nDuration                       : 1h 53mn\r\nBit rate mode                  : Constant\r\nBit rate                       : 768 Kbps\r\nChannel(s)                     : 6 channels\r\nChannel positions              : Front: L C R, Side: L R, LFE\r\nSampling rate                  : 48.0 KHz\r\nFrame rate                     : 187.500 fps (256 spf)\r\nBit depth                      : 32 bits\r\nCompression mode               : Lossy\r\nStream size                    : 625 MiB (5%)\r\nWriting library                : Lavc57.25.101 eac3\r\nLanguage                       : French\r\nDefault                        : Yes\r\nForced                         : No\r\nDURATION                       : 01:53:50.912000000\r\n\r\nText #1\r\nID                             : 3\r\nFormat                         : PGS\r\nCodec ID                       : S_HDMV/PGS\r\nCodec ID/Info                  : Picture based subtitle format used on BDs/HD-DVDs\r\nLanguage                       : English\r\nDefault                        : Yes\r\nForced                         : No\r\nDURATION                       : 01:53:48.660000000\r\n\r\nText #2\r\nID                             : 4\r\nFormat                         : PGS\r\nCodec ID                       : S_HDMV/PGS\r\nCodec ID/Info                  : Picture based subtitle format used on BDs/HD-DVDs\r\nLanguage                       : French\r\nDefault                        : Yes\r\nForced                         : No\r\nDURATION                       : 01:53:48.660000000\r\n\r\nMenu\r\n00:00:00.000                   : :Chapter 01\r\n00:10:11.819                   : :Chapter 02\r\n00:21:05.138                   : :Chapter 03\r\n00:29:20.925                   : :Chapter 04\r\n00:42:44.895                   : :Chapter 05\r\n00:50:05.794                   : :Chapter 06\r\n01:03:19.462                   : :Chapter 07\r\n01:12:43.942                   : :Chapter 08\r\n01:20:40.418                   : :Chapter 09\r\n01:27:14.520                   : :Chapter 10\r\n01:32:44.350                   : :Chapter 11\r\n01:39:02.603                   : :Chapter 12\r\n\r\n\r\n\r\nEnjoy and seed, please, as long as you can.\r\n\r\nTy and best regards","torrent":{"xt":"urn:btih:939eceac936db45a3c6c88559f23cf734c98a62c","amp;dn":"Point_Break.%282015%29.h263.1080p%5B%29%28%5DDD%2B+5.1-%28FR%29.mkv","amp;tr":["udp%3A%2F%2Ftracker.leechers-paradise.org%3A6969","udp%3A%2F%2Fzer0day.ch%3A1337","udp%3A%2F%2Fopen.demonii.com%3A1337","udp%3A%2F%2Ftracker.coppersurfer.tk%3A6969","udp%3A%2F%2Fexodus.desync.com%3A6969"],"infoHash":"939eceac936db45a3c6c88559f23cf734c98a62c","infoHashBuffer":{"type":"Buffer","data":[147,158,206,172,147,109,180,90,60,108,136,85,159,35,207,115,76,152,166,44]},"announce":[],"urlList":[]}}